<?xml version="1.0" encoding="UTF-8" standalone="no"?>
<!DOCTYPE svg PUBLIC "-//W3C//DTD SVG 1.1//EN"
 "http://www.w3.org/Graphics/SVG/1.1/DTD/svg11.dtd">
<!-- Generated by graphviz version 2.38.0 (20140413.2041)
 -->
<!-- Title: snakemake_dag Pages: 1 -->
<svg width="2622pt" height="342pt"
 viewBox="0.00 0.00 2621.50 342.00" xmlns="http://www.w3.org/2000/svg" xmlns:xlink="http://www.w3.org/1999/xlink">
<g id="graph0" class="graph" transform="scale(1 1) rotate(0) translate(4 338)">
<title>snakemake_dag</title>
<polygon fill="white" stroke="none" points="-4,4 -4,-338 2617.5,-338 2617.5,4 -4,4"/>
<!-- 0 -->
<g id="node1" class="node"><title>0</title>
<path fill="none" stroke="#569ad8" stroke-width="2" d="M1238.5,-36C1238.5,-36 1208.5,-36 1208.5,-36 1202.5,-36 1196.5,-30 1196.5,-24 1196.5,-24 1196.5,-12 1196.5,-12 1196.5,-6 1202.5,-0 1208.5,-0 1208.5,-0 1238.5,-0 1238.5,-0 1244.5,-0 1250.5,-6 1250.5,-12 1250.5,-12 1250.5,-24 1250.5,-24 1250.5,-30 1244.5,-36 1238.5,-36"/>
<text text-anchor="middle" x="1223.5" y="-15.5" font-family="sans" font-size="10.00">all</text>
</g>
<!-- 1 -->
<g id="node2" class="node"><title>1</title>
<path fill="none" stroke="#97d856" stroke-width="2" d="M119,-113C119,-113 12,-113 12,-113 6,-113 0,-107 0,-101 0,-101 0,-84 0,-84 0,-78 6,-72 12,-72 12,-72 119,-72 119,-72 125,-72 131,-78 131,-84 131,-84 131,-101 131,-101 131,-107 125,-113 119,-113"/>
<text text-anchor="middle" x="65.5" y="-101" font-family="sans" font-size="10.00">fastqc</text>
<text text-anchor="middle" x="65.5" y="-90" font-family="sans" font-size="10.00">read: R1</text>
<text text-anchor="middle" x="65.5" y="-79" font-family="sans" font-size="10.00">sample: samp2_ip.rep1</text>
</g>
<!-- 1&#45;&gt;0 -->
<g id="edge1" class="edge"><title>1&#45;&gt;0</title>
<path fill="none" stroke="grey" stroke-width="2" d="M131.117,-73.4488C133.94,-72.9132 136.743,-72.4259 139.5,-72 347.675,-39.8439 1019.12,-23.4282 1185.79,-19.7871"/>
<polygon fill="grey" stroke="grey" stroke-width="2" points="1186.1,-23.2812 1196.03,-19.5657 1185.95,-16.2828 1186.1,-23.2812"/>
</g>
<!-- 2 -->
<g id="node3" class="node"><title>2</title>
<path fill="none" stroke="#97d856" stroke-width="2" d="M268,-113C268,-113 161,-113 161,-113 155,-113 149,-107 149,-101 149,-101 149,-84 149,-84 149,-78 155,-72 161,-72 161,-72 268,-72 268,-72 274,-72 280,-78 280,-84 280,-84 280,-101 280,-101 280,-107 274,-113 268,-113"/>
<text text-anchor="middle" x="214.5" y="-101" font-family="sans" font-size="10.00">fastqc</text>
<text text-anchor="middle" x="214.5" y="-90" font-family="sans" font-size="10.00">read: R2</text>
<text text-anchor="middle" x="214.5" y="-79" font-family="sans" font-size="10.00">sample: samp2_ip.rep1</text>
</g>
<!-- 2&#45;&gt;0 -->
<g id="edge2" class="edge"><title>2&#45;&gt;0</title>
<path fill="none" stroke="grey" stroke-width="2" d="M280.195,-73.6351C283.33,-73.0299 286.443,-72.4793 289.5,-72 634.449,-17.9146 1058.72,-17.2917 1185.82,-18.4805"/>
<polygon fill="grey" stroke="grey" stroke-width="2" points="1186.13,-21.9838 1196.17,-18.5877 1186.2,-14.9841 1186.13,-21.9838"/>
</g>
<!-- 3 -->
<g id="node4" class="node"><title>3</title>
<path fill="none" stroke="#97d856" stroke-width="2" d="M408.5,-113C408.5,-113 310.5,-113 310.5,-113 304.5,-113 298.5,-107 298.5,-101 298.5,-101 298.5,-84 298.5,-84 298.5,-78 304.5,-72 310.5,-72 310.5,-72 408.5,-72 408.5,-72 414.5,-72 420.5,-78 420.5,-84 420.5,-84 420.5,-101 420.5,-101 420.5,-107 414.5,-113 408.5,-113"/>
<text text-anchor="middle" x="359.5" y="-101" font-family="sans" font-size="10.00">fastqc</text>
<text text-anchor="middle" x="359.5" y="-90" font-family="sans" font-size="10.00">read: R1</text>
<text text-anchor="middle" x="359.5" y="-79" font-family="sans" font-size="10.00">sample: samp2_input</text>
</g>
<!-- 3&#45;&gt;0 -->
<g id="edge3" class="edge"><title>3&#45;&gt;0</title>
<path fill="none" stroke="grey" stroke-width="2" d="M420.799,-73.658C423.729,-73.0466 426.64,-72.4885 429.5,-72 717.429,-22.8217 1071.35,-18.7242 1185.86,-18.7881"/>
<polygon fill="grey" stroke="grey" stroke-width="2" points="1186.18,-22.2886 1196.18,-18.8059 1186.19,-15.2886 1186.18,-22.2886"/>
</g>
<!-- 4 -->
<g id="node5" class="node"><title>4</title>
<path fill="none" stroke="#97d856" stroke-width="2" d="M548.5,-113C548.5,-113 450.5,-113 450.5,-113 444.5,-113 438.5,-107 438.5,-101 438.5,-101 438.5,-84 438.5,-84 438.5,-78 444.5,-72 450.5,-72 450.5,-72 548.5,-72 548.5,-72 554.5,-72 560.5,-78 560.5,-84 560.5,-84 560.5,-101 560.5,-101 560.5,-107 554.5,-113 548.5,-113"/>
<text text-anchor="middle" x="499.5" y="-101" font-family="sans" font-size="10.00">fastqc</text>
<text text-anchor="middle" x="499.5" y="-90" font-family="sans" font-size="10.00">read: R2</text>
<text text-anchor="middle" x="499.5" y="-79" font-family="sans" font-size="10.00">sample: samp2_input</text>
</g>
<!-- 4&#45;&gt;0 -->
<g id="edge4" class="edge"><title>4&#45;&gt;0</title>
<path fill="none" stroke="grey" stroke-width="2" d="M560.807,-73.7084C563.735,-73.0836 566.643,-72.5088 569.5,-72 801.602,-30.6576 1085.86,-21.5214 1186.25,-19.5382"/>
<polygon fill="grey" stroke="grey" stroke-width="2" points="1186.54,-23.0334 1196.48,-19.3487 1186.41,-16.0346 1186.54,-23.0334"/>
</g>
<!-- 5 -->
<g id="node6" class="node"><title>5</title>
<path fill="none" stroke="#97d856" stroke-width="2" d="M698,-113C698,-113 591,-113 591,-113 585,-113 579,-107 579,-101 579,-101 579,-84 579,-84 579,-78 585,-72 591,-72 591,-72 698,-72 698,-72 704,-72 710,-78 710,-84 710,-84 710,-101 710,-101 710,-107 704,-113 698,-113"/>
<text text-anchor="middle" x="644.5" y="-101" font-family="sans" font-size="10.00">fastqc</text>
<text text-anchor="middle" x="644.5" y="-90" font-family="sans" font-size="10.00">read: R1</text>
<text text-anchor="middle" x="644.5" y="-79" font-family="sans" font-size="10.00">sample: samp1_ip.rep2</text>
</g>
<!-- 5&#45;&gt;0 -->
<g id="edge5" class="edge"><title>5&#45;&gt;0</title>
<path fill="none" stroke="grey" stroke-width="2" d="M710.15,-73.6426C712.964,-73.0539 715.756,-72.5025 718.5,-72 891.882,-40.2506 1102.49,-25.7649 1186.41,-20.9436"/>
<polygon fill="grey" stroke="grey" stroke-width="2" points="1186.68,-24.434 1196.47,-20.3775 1186.29,-17.445 1186.68,-24.434"/>
</g>
<!-- 6 -->
<g id="node7" class="node"><title>6</title>
<path fill="none" stroke="#97d856" stroke-width="2" d="M847,-113C847,-113 740,-113 740,-113 734,-113 728,-107 728,-101 728,-101 728,-84 728,-84 728,-78 734,-72 740,-72 740,-72 847,-72 847,-72 853,-72 859,-78 859,-84 859,-84 859,-101 859,-101 859,-107 853,-113 847,-113"/>
<text text-anchor="middle" x="793.5" y="-101" font-family="sans" font-size="10.00">fastqc</text>
<text text-anchor="middle" x="793.5" y="-90" font-family="sans" font-size="10.00">read: R2</text>
<text text-anchor="middle" x="793.5" y="-79" font-family="sans" font-size="10.00">sample: samp1_ip.rep2</text>
</g>
<!-- 6&#45;&gt;0 -->
<g id="edge6" class="edge"><title>6&#45;&gt;0</title>
<path fill="none" stroke="grey" stroke-width="2" d="M859.258,-73.9814C862.376,-73.2835 865.468,-72.6186 868.5,-72 983.307,-48.574 1120.98,-30.9678 1185.99,-23.2702"/>
<polygon fill="grey" stroke="grey" stroke-width="2" points="1186.64,-26.719 1196.16,-22.0775 1185.82,-19.7667 1186.64,-26.719"/>
</g>
<!-- 7 -->
<g id="node8" class="node"><title>7</title>
<path fill="none" stroke="#97d856" stroke-width="2" d="M987.5,-113C987.5,-113 889.5,-113 889.5,-113 883.5,-113 877.5,-107 877.5,-101 877.5,-101 877.5,-84 877.5,-84 877.5,-78 883.5,-72 889.5,-72 889.5,-72 987.5,-72 987.5,-72 993.5,-72 999.5,-78 999.5,-84 999.5,-84 999.5,-101 999.5,-101 999.5,-107 993.5,-113 987.5,-113"/>
<text text-anchor="middle" x="938.5" y="-101" font-family="sans" font-size="10.00">fastqc</text>
<text text-anchor="middle" x="938.5" y="-90" font-family="sans" font-size="10.00">read: R1</text>
<text text-anchor="middle" x="938.5" y="-79" font-family="sans" font-size="10.00">sample: samp1_input</text>
</g>
<!-- 7&#45;&gt;0 -->
<g id="edge7" class="edge"><title>7&#45;&gt;0</title>
<path fill="none" stroke="grey" stroke-width="2" d="M999.554,-74.3759C1002.58,-73.5646 1005.57,-72.7687 1008.5,-72 1070.68,-55.6799 1143.36,-38.0678 1186.29,-27.8142"/>
<polygon fill="grey" stroke="grey" stroke-width="2" points="1187.37,-31.1561 1196.28,-25.4329 1185.74,-24.3469 1187.37,-31.1561"/>
</g>
<!-- 8 -->
<g id="node9" class="node"><title>8</title>
<path fill="none" stroke="#97d856" stroke-width="2" d="M1127.5,-113C1127.5,-113 1029.5,-113 1029.5,-113 1023.5,-113 1017.5,-107 1017.5,-101 1017.5,-101 1017.5,-84 1017.5,-84 1017.5,-78 1023.5,-72 1029.5,-72 1029.5,-72 1127.5,-72 1127.5,-72 1133.5,-72 1139.5,-78 1139.5,-84 1139.5,-84 1139.5,-101 1139.5,-101 1139.5,-107 1133.5,-113 1127.5,-113"/>
<text text-anchor="middle" x="1078.5" y="-101" font-family="sans" font-size="10.00">fastqc</text>
<text text-anchor="middle" x="1078.5" y="-90" font-family="sans" font-size="10.00">read: R2</text>
<text text-anchor="middle" x="1078.5" y="-79" font-family="sans" font-size="10.00">sample: samp1_input</text>
</g>
<!-- 8&#45;&gt;0 -->
<g id="edge8" class="edge"><title>8&#45;&gt;0</title>
<path fill="none" stroke="grey" stroke-width="2" d="M1117.74,-71.8805C1139.36,-61.0675 1166.03,-47.7342 1187.18,-37.1613"/>
<polygon fill="grey" stroke="grey" stroke-width="2" points="1188.79,-40.2687 1196.17,-32.666 1185.66,-34.0077 1188.79,-40.2687"/>
</g>
<!-- 9 -->
<g id="node10" class="node"><title>9</title>
<path fill="none" stroke="#97d856" stroke-width="2" d="M1277,-113C1277,-113 1170,-113 1170,-113 1164,-113 1158,-107 1158,-101 1158,-101 1158,-84 1158,-84 1158,-78 1164,-72 1170,-72 1170,-72 1277,-72 1277,-72 1283,-72 1289,-78 1289,-84 1289,-84 1289,-101 1289,-101 1289,-107 1283,-113 1277,-113"/>
<text text-anchor="middle" x="1223.5" y="-101" font-family="sans" font-size="10.00">fastqc</text>
<text text-anchor="middle" x="1223.5" y="-90" font-family="sans" font-size="10.00">read: R1</text>
<text text-anchor="middle" x="1223.5" y="-79" font-family="sans" font-size="10.00">sample: samp2_ip.rep2</text>
</g>
<!-- 9&#45;&gt;0 -->
<g id="edge9" class="edge"><title>9&#45;&gt;0</title>
<path fill="none" stroke="grey" stroke-width="2" d="M1223.5,-71.6891C1223.5,-63.9066 1223.5,-54.8417 1223.5,-46.4471"/>
<polygon fill="grey" stroke="grey" stroke-width="2" points="1227,-46.3194 1223.5,-36.3195 1220,-46.3195 1227,-46.3194"/>
</g>
<!-- 10 -->
<g id="node11" class="node"><title>10</title>
<path fill="none" stroke="#97d856" stroke-width="2" d="M1426,-113C1426,-113 1319,-113 1319,-113 1313,-113 1307,-107 1307,-101 1307,-101 1307,-84 1307,-84 1307,-78 1313,-72 1319,-72 1319,-72 1426,-72 1426,-72 1432,-72 1438,-78 1438,-84 1438,-84 1438,-101 1438,-101 1438,-107 1432,-113 1426,-113"/>
<text text-anchor="middle" x="1372.5" y="-101" font-family="sans" font-size="10.00">fastqc</text>
<text text-anchor="middle" x="1372.5" y="-90" font-family="sans" font-size="10.00">read: R2</text>
<text text-anchor="middle" x="1372.5" y="-79" font-family="sans" font-size="10.00">sample: samp2_ip.rep2</text>
</g>
<!-- 10&#45;&gt;0 -->
<g id="edge10" class="edge"><title>10&#45;&gt;0</title>
<path fill="none" stroke="grey" stroke-width="2" d="M1332.18,-71.8805C1309.66,-60.9214 1281.81,-47.3734 1259.95,-36.7342"/>
<polygon fill="grey" stroke="grey" stroke-width="2" points="1261.19,-33.4481 1250.67,-32.2199 1258.13,-39.7425 1261.19,-33.4481"/>
</g>
<!-- 11 -->
<g id="node12" class="node"><title>11</title>
<path fill="none" stroke="#97d856" stroke-width="2" d="M1575,-113C1575,-113 1468,-113 1468,-113 1462,-113 1456,-107 1456,-101 1456,-101 1456,-84 1456,-84 1456,-78 1462,-72 1468,-72 1468,-72 1575,-72 1575,-72 1581,-72 1587,-78 1587,-84 1587,-84 1587,-101 1587,-101 1587,-107 1581,-113 1575,-113"/>
<text text-anchor="middle" x="1521.5" y="-101" font-family="sans" font-size="10.00">fastqc</text>
<text text-anchor="middle" x="1521.5" y="-90" font-family="sans" font-size="10.00">read: R1</text>
<text text-anchor="middle" x="1521.5" y="-79" font-family="sans" font-size="10.00">sample: samp1_ip.rep1</text>
</g>
<!-- 11&#45;&gt;0 -->
<g id="edge11" class="edge"><title>11&#45;&gt;0</title>
<path fill="none" stroke="grey" stroke-width="2" d="M1455.67,-74.3006C1452.57,-73.5174 1449.5,-72.7471 1446.5,-72 1381.26,-55.7669 1305,-37.8754 1260.68,-27.5853"/>
<polygon fill="grey" stroke="grey" stroke-width="2" points="1261.2,-24.1112 1250.66,-25.2618 1259.61,-30.9303 1261.2,-24.1112"/>
</g>
<!-- 12 -->
<g id="node13" class="node"><title>12</title>
<path fill="none" stroke="#97d856" stroke-width="2" d="M1724,-113C1724,-113 1617,-113 1617,-113 1611,-113 1605,-107 1605,-101 1605,-101 1605,-84 1605,-84 1605,-78 1611,-72 1617,-72 1617,-72 1724,-72 1724,-72 1730,-72 1736,-78 1736,-84 1736,-84 1736,-101 1736,-101 1736,-107 1730,-113 1724,-113"/>
<text text-anchor="middle" x="1670.5" y="-101" font-family="sans" font-size="10.00">fastqc</text>
<text text-anchor="middle" x="1670.5" y="-90" font-family="sans" font-size="10.00">read: R2</text>
<text text-anchor="middle" x="1670.5" y="-79" font-family="sans" font-size="10.00">sample: samp1_ip.rep1</text>
</g>
<!-- 12&#45;&gt;0 -->
<g id="edge12" class="edge"><title>12&#45;&gt;0</title>
<path fill="none" stroke="grey" stroke-width="2" d="M1604.75,-73.9562C1601.63,-73.2651 1598.53,-72.6085 1595.5,-72 1474.07,-47.6452 1328.16,-30.2657 1260.86,-22.9096"/>
<polygon fill="grey" stroke="grey" stroke-width="2" points="1261.07,-19.4117 1250.75,-21.8156 1260.32,-26.3711 1261.07,-19.4117"/>
</g>
<!-- 13 -->
<g id="node14" class="node"><title>13</title>
<path fill="none" stroke="#56d8d8" stroke-width="2" d="M1510,-185C1510,-185 1469,-185 1469,-185 1463,-185 1457,-179 1457,-173 1457,-173 1457,-161 1457,-161 1457,-155 1463,-149 1469,-149 1469,-149 1510,-149 1510,-149 1516,-149 1522,-155 1522,-161 1522,-161 1522,-173 1522,-173 1522,-179 1516,-185 1510,-185"/>
<text text-anchor="middle" x="1489.5" y="-164.5" font-family="sans" font-size="10.00">foldEnrich</text>
</g>
<!-- 13&#45;&gt;0 -->
<g id="edge13" class="edge"><title>13&#45;&gt;0</title>
<path fill="none" stroke="grey" stroke-width="2" d="M1522.15,-161.534C1587.74,-152.236 1730.48,-130.231 1744.5,-113 1756,-98.8646 1756.72,-85.5214 1744.5,-72 1712.14,-36.1771 1374.83,-23.3137 1260.88,-19.9711"/>
<polygon fill="grey" stroke="grey" stroke-width="2" points="1260.66,-16.4636 1250.56,-19.6769 1260.46,-23.4607 1260.66,-16.4636"/>
</g>
<!-- 14 -->
<g id="node15" class="node"><title>14</title>
<path fill="none" stroke="#56d8d8" stroke-width="2" d="M1676,-185C1676,-185 1635,-185 1635,-185 1629,-185 1623,-179 1623,-173 1623,-173 1623,-161 1623,-161 1623,-155 1629,-149 1635,-149 1635,-149 1676,-149 1676,-149 1682,-149 1688,-155 1688,-161 1688,-161 1688,-173 1688,-173 1688,-179 1682,-185 1676,-185"/>
<text text-anchor="middle" x="1655.5" y="-164.5" font-family="sans" font-size="10.00">foldEnrich</text>
</g>
<!-- 14&#45;&gt;0 -->
<g id="edge14" class="edge"><title>14&#45;&gt;0</title>
<path fill="none" stroke="grey" stroke-width="2" d="M1688.22,-159.668C1713.61,-152.849 1747.15,-139.234 1763.5,-113 1773.14,-97.535 1775.74,-85.4997 1763.5,-72 1729.79,-34.8213 1378.03,-22.8144 1261.08,-19.8341"/>
<polygon fill="grey" stroke="grey" stroke-width="2" points="1260.91,-16.329 1250.83,-19.5809 1260.74,-23.3269 1260.91,-16.329"/>
</g>
<!-- 15 -->
<g id="node16" class="node"><title>15</title>
<path fill="none" stroke="#56d8d8" stroke-width="2" d="M2082,-185C2082,-185 2041,-185 2041,-185 2035,-185 2029,-179 2029,-173 2029,-173 2029,-161 2029,-161 2029,-155 2035,-149 2041,-149 2041,-149 2082,-149 2082,-149 2088,-149 2094,-155 2094,-161 2094,-161 2094,-173 2094,-173 2094,-179 2088,-185 2082,-185"/>
<text text-anchor="middle" x="2061.5" y="-164.5" font-family="sans" font-size="10.00">foldEnrich</text>
</g>
<!-- 15&#45;&gt;0 -->
<g id="edge15" class="edge"><title>15&#45;&gt;0</title>
<path fill="none" stroke="grey" stroke-width="2" d="M2038.81,-148.817C2008.14,-126.659 1950.92,-88.9604 1895.5,-72 1775.35,-35.2297 1383.92,-22.8547 1260.88,-19.8209"/>
<polygon fill="grey" stroke="grey" stroke-width="2" points="1260.9,-16.3205 1250.81,-19.5791 1260.73,-23.3185 1260.9,-16.3205"/>
</g>
<!-- 16 -->
<g id="node17" class="node"><title>16</title>
<path fill="none" stroke="#56d8d8" stroke-width="2" d="M2315,-185C2315,-185 2274,-185 2274,-185 2268,-185 2262,-179 2262,-173 2262,-173 2262,-161 2262,-161 2262,-155 2268,-149 2274,-149 2274,-149 2315,-149 2315,-149 2321,-149 2327,-155 2327,-161 2327,-161 2327,-173 2327,-173 2327,-179 2321,-185 2315,-185"/>
<text text-anchor="middle" x="2294.5" y="-164.5" font-family="sans" font-size="10.00">foldEnrich</text>
</g>
<!-- 16&#45;&gt;0 -->
<g id="edge16" class="edge"><title>16&#45;&gt;0</title>
<path fill="none" stroke="grey" stroke-width="2" d="M2261.97,-154.755C2201.74,-134.454 2068.41,-91.9445 1952.5,-72 1690.17,-26.8607 1368.29,-20.1106 1260.58,-19.1448"/>
<polygon fill="grey" stroke="grey" stroke-width="2" points="1260.57,-15.6447 1250.54,-19.0663 1260.51,-22.6445 1260.57,-15.6447"/>
</g>
<!-- 17 -->
<g id="node18" class="node"><title>17</title>
<path fill="none" stroke="#59d856" stroke-width="2" d="M1874.5,-110.5C1874.5,-110.5 1842.5,-110.5 1842.5,-110.5 1836.5,-110.5 1830.5,-104.5 1830.5,-98.5 1830.5,-98.5 1830.5,-86.5 1830.5,-86.5 1830.5,-80.5 1836.5,-74.5 1842.5,-74.5 1842.5,-74.5 1874.5,-74.5 1874.5,-74.5 1880.5,-74.5 1886.5,-80.5 1886.5,-86.5 1886.5,-86.5 1886.5,-98.5 1886.5,-98.5 1886.5,-104.5 1880.5,-110.5 1874.5,-110.5"/>
<text text-anchor="middle" x="1858.5" y="-90" font-family="sans" font-size="10.00">pearson</text>
</g>
<!-- 17&#45;&gt;0 -->
<g id="edge17" class="edge"><title>17&#45;&gt;0</title>
<path fill="none" stroke="grey" stroke-width="2" d="M1830.07,-76.7159C1825.62,-74.8685 1821,-73.2073 1816.5,-72 1710.72,-43.6432 1373.72,-25.9159 1260.79,-20.6511"/>
<polygon fill="grey" stroke="grey" stroke-width="2" points="1260.73,-17.1446 1250.58,-20.1806 1260.4,-24.1372 1260.73,-17.1446"/>
</g>
<!-- 18 -->
<g id="node19" class="node"><title>18</title>
<path fill="none" stroke="#d85656" stroke-width="2" d="M1427.5,-262C1427.5,-262 1301.5,-262 1301.5,-262 1295.5,-262 1289.5,-256 1289.5,-250 1289.5,-250 1289.5,-233 1289.5,-233 1289.5,-227 1295.5,-221 1301.5,-221 1301.5,-221 1427.5,-221 1427.5,-221 1433.5,-221 1439.5,-227 1439.5,-233 1439.5,-233 1439.5,-250 1439.5,-250 1439.5,-256 1433.5,-262 1427.5,-262"/>
<text text-anchor="middle" x="1364.5" y="-250" font-family="sans" font-size="10.00">macs2_call_broadpeaks</text>
<text text-anchor="middle" x="1364.5" y="-239" font-family="sans" font-size="10.00">ctrl_samp: samp1_input</text>
<text text-anchor="middle" x="1364.5" y="-228" font-family="sans" font-size="10.00">treat_samp: samp1_ip.rep1</text>
</g>
<!-- 18&#45;&gt;13 -->
<g id="edge18" class="edge"><title>18&#45;&gt;13</title>
<path fill="none" stroke="grey" stroke-width="2" d="M1398.33,-220.88C1414.55,-211.468 1434.07,-200.147 1450.88,-190.398"/>
<polygon fill="grey" stroke="grey" stroke-width="2" points="1453.01,-193.211 1459.9,-185.166 1449.5,-187.156 1453.01,-193.211"/>
</g>
<!-- 22 -->
<g id="node23" class="node"><title>22</title>
<path fill="none" stroke="#d89556" stroke-width="2" d="M1918,-185C1918,-185 1799,-185 1799,-185 1793,-185 1787,-179 1787,-173 1787,-173 1787,-161 1787,-161 1787,-155 1793,-149 1799,-149 1799,-149 1918,-149 1918,-149 1924,-149 1930,-155 1930,-161 1930,-161 1930,-173 1930,-173 1930,-179 1924,-185 1918,-185"/>
<text text-anchor="middle" x="1858.5" y="-164.5" font-family="sans" font-size="10.00">multiBigwig_norm_counts</text>
</g>
<!-- 18&#45;&gt;22 -->
<g id="edge31" class="edge"><title>18&#45;&gt;22</title>
<path fill="none" stroke="grey" stroke-width="2" d="M1439.53,-222.693C1442.55,-222.098 1445.55,-221.531 1448.5,-221 1561.57,-200.62 1693.54,-185.005 1776.57,-176.164"/>
<polygon fill="grey" stroke="grey" stroke-width="2" points="1777.12,-179.625 1786.69,-175.093 1776.38,-172.664 1777.12,-179.625"/>
</g>
<!-- 19 -->
<g id="node20" class="node"><title>19</title>
<path fill="none" stroke="#d85656" stroke-width="2" d="M1595.5,-262C1595.5,-262 1469.5,-262 1469.5,-262 1463.5,-262 1457.5,-256 1457.5,-250 1457.5,-250 1457.5,-233 1457.5,-233 1457.5,-227 1463.5,-221 1469.5,-221 1469.5,-221 1595.5,-221 1595.5,-221 1601.5,-221 1607.5,-227 1607.5,-233 1607.5,-233 1607.5,-250 1607.5,-250 1607.5,-256 1601.5,-262 1595.5,-262"/>
<text text-anchor="middle" x="1532.5" y="-250" font-family="sans" font-size="10.00">macs2_call_broadpeaks</text>
<text text-anchor="middle" x="1532.5" y="-239" font-family="sans" font-size="10.00">ctrl_samp: samp1_input</text>
<text text-anchor="middle" x="1532.5" y="-228" font-family="sans" font-size="10.00">treat_samp: samp1_ip.rep2</text>
</g>
<!-- 19&#45;&gt;14 -->
<g id="edge19" class="edge"><title>19&#45;&gt;14</title>
<path fill="none" stroke="grey" stroke-width="2" d="M1565.79,-220.88C1581.75,-211.468 1600.96,-200.147 1617.5,-190.398"/>
<polygon fill="grey" stroke="grey" stroke-width="2" points="1619.54,-193.26 1626.38,-185.166 1615.98,-187.229 1619.54,-193.26"/>
</g>
<!-- 19&#45;&gt;22 -->
<g id="edge32" class="edge"><title>19&#45;&gt;22</title>
<path fill="none" stroke="grey" stroke-width="2" d="M1607.6,-223.018C1610.6,-222.334 1613.58,-221.659 1616.5,-221 1669.97,-208.94 1730.17,-195.753 1777.15,-185.55"/>
<polygon fill="grey" stroke="grey" stroke-width="2" points="1777.94,-188.961 1786.97,-183.42 1776.46,-182.12 1777.94,-188.961"/>
</g>
<!-- 20 -->
<g id="node21" class="node"><title>20</title>
<path fill="none" stroke="#d85656" stroke-width="2" d="M2165.5,-262C2165.5,-262 2039.5,-262 2039.5,-262 2033.5,-262 2027.5,-256 2027.5,-250 2027.5,-250 2027.5,-233 2027.5,-233 2027.5,-227 2033.5,-221 2039.5,-221 2039.5,-221 2165.5,-221 2165.5,-221 2171.5,-221 2177.5,-227 2177.5,-233 2177.5,-233 2177.5,-250 2177.5,-250 2177.5,-256 2171.5,-262 2165.5,-262"/>
<text text-anchor="middle" x="2102.5" y="-250" font-family="sans" font-size="10.00">macs2_call_broadpeaks</text>
<text text-anchor="middle" x="2102.5" y="-239" font-family="sans" font-size="10.00">ctrl_samp: samp2_input</text>
<text text-anchor="middle" x="2102.5" y="-228" font-family="sans" font-size="10.00">treat_samp: samp2_ip.rep1</text>
</g>
<!-- 20&#45;&gt;15 -->
<g id="edge20" class="edge"><title>20&#45;&gt;15</title>
<path fill="none" stroke="grey" stroke-width="2" d="M2091.3,-220.689C2086.65,-212.474 2081.2,-202.83 2076.23,-194.055"/>
<polygon fill="grey" stroke="grey" stroke-width="2" points="2079.26,-192.301 2071.29,-185.319 2073.17,-195.747 2079.26,-192.301"/>
</g>
<!-- 20&#45;&gt;22 -->
<g id="edge33" class="edge"><title>20&#45;&gt;22</title>
<path fill="none" stroke="grey" stroke-width="2" d="M2036.79,-220.976C2002.49,-210.784 1960.59,-198.333 1926.02,-188.063"/>
<polygon fill="grey" stroke="grey" stroke-width="2" points="1926.6,-184.583 1916.02,-185.09 1924.6,-191.293 1926.6,-184.583"/>
</g>
<!-- 21 -->
<g id="node22" class="node"><title>21</title>
<path fill="none" stroke="#d85656" stroke-width="2" d="M2467.5,-262C2467.5,-262 2341.5,-262 2341.5,-262 2335.5,-262 2329.5,-256 2329.5,-250 2329.5,-250 2329.5,-233 2329.5,-233 2329.5,-227 2335.5,-221 2341.5,-221 2341.5,-221 2467.5,-221 2467.5,-221 2473.5,-221 2479.5,-227 2479.5,-233 2479.5,-233 2479.5,-250 2479.5,-250 2479.5,-256 2473.5,-262 2467.5,-262"/>
<text text-anchor="middle" x="2404.5" y="-250" font-family="sans" font-size="10.00">macs2_call_broadpeaks</text>
<text text-anchor="middle" x="2404.5" y="-239" font-family="sans" font-size="10.00">ctrl_samp: samp2_input</text>
<text text-anchor="middle" x="2404.5" y="-228" font-family="sans" font-size="10.00">treat_samp: samp2_ip.rep2</text>
</g>
<!-- 21&#45;&gt;16 -->
<g id="edge21" class="edge"><title>21&#45;&gt;16</title>
<path fill="none" stroke="grey" stroke-width="2" d="M2374.73,-220.88C2360.72,-211.643 2343.91,-200.565 2329.31,-190.941"/>
<polygon fill="grey" stroke="grey" stroke-width="2" points="2330.82,-187.747 2320.55,-185.166 2326.97,-193.592 2330.82,-187.747"/>
</g>
<!-- 21&#45;&gt;22 -->
<g id="edge34" class="edge"><title>21&#45;&gt;22</title>
<path fill="none" stroke="grey" stroke-width="2" d="M2329.48,-222.639C2326.45,-222.059 2323.45,-221.51 2320.5,-221 2284.03,-214.697 2062.83,-190.237 1940.2,-176.861"/>
<polygon fill="grey" stroke="grey" stroke-width="2" points="1940.42,-173.364 1930.1,-175.759 1939.66,-180.323 1940.42,-173.364"/>
</g>
<!-- 22&#45;&gt;17 -->
<g id="edge22" class="edge"><title>22&#45;&gt;17</title>
<path fill="none" stroke="grey" stroke-width="2" d="M1858.5,-148.819C1858.5,-140.422 1858.5,-130.116 1858.5,-120.686"/>
<polygon fill="grey" stroke="grey" stroke-width="2" points="1862,-120.558 1858.5,-110.558 1855,-120.558 1862,-120.558"/>
</g>
<!-- 23 -->
<g id="node24" class="node"><title>23</title>
<path fill="none" stroke="#d6d856" stroke-width="2" d="M1413.5,-334C1413.5,-334 1315.5,-334 1315.5,-334 1309.5,-334 1303.5,-328 1303.5,-322 1303.5,-322 1303.5,-310 1303.5,-310 1303.5,-304 1309.5,-298 1315.5,-298 1315.5,-298 1413.5,-298 1413.5,-298 1419.5,-298 1425.5,-304 1425.5,-310 1425.5,-310 1425.5,-322 1425.5,-322 1425.5,-328 1419.5,-334 1413.5,-334"/>
<text text-anchor="middle" x="1364.5" y="-319" font-family="sans" font-size="10.00">bwa_align</text>
<text text-anchor="middle" x="1364.5" y="-308" font-family="sans" font-size="10.00">sample: samp1_input</text>
</g>
<!-- 23&#45;&gt;18 -->
<g id="edge23" class="edge"><title>23&#45;&gt;18</title>
<path fill="none" stroke="grey" stroke-width="2" d="M1364.5,-297.819C1364.5,-290.198 1364.5,-281.005 1364.5,-272.32"/>
<polygon fill="grey" stroke="grey" stroke-width="2" points="1368,-272.12 1364.5,-262.12 1361,-272.12 1368,-272.12"/>
</g>
<!-- 23&#45;&gt;19 -->
<g id="edge25" class="edge"><title>23&#45;&gt;19</title>
<path fill="none" stroke="grey" stroke-width="2" d="M1404.31,-297.819C1426.24,-288.355 1453.79,-276.468 1477.72,-266.14"/>
<polygon fill="grey" stroke="grey" stroke-width="2" points="1479.24,-269.295 1487.04,-262.12 1476.47,-262.868 1479.24,-269.295"/>
</g>
<!-- 32 -->
<g id="node33" class="node"><title>32</title>
<path fill="none" stroke="#56d89a" stroke-width="2" d="M1259.5,-259.5C1259.5,-259.5 1167.5,-259.5 1167.5,-259.5 1161.5,-259.5 1155.5,-253.5 1155.5,-247.5 1155.5,-247.5 1155.5,-235.5 1155.5,-235.5 1155.5,-229.5 1161.5,-223.5 1167.5,-223.5 1167.5,-223.5 1259.5,-223.5 1259.5,-223.5 1265.5,-223.5 1271.5,-229.5 1271.5,-235.5 1271.5,-235.5 1271.5,-247.5 1271.5,-247.5 1271.5,-253.5 1265.5,-259.5 1259.5,-259.5"/>
<text text-anchor="middle" x="1213.5" y="-239" font-family="sans" font-size="10.00">coverage_normalize</text>
</g>
<!-- 23&#45;&gt;32 -->
<g id="edge44" class="edge"><title>23&#45;&gt;32</title>
<path fill="none" stroke="grey" stroke-width="2" d="M1328.72,-297.819C1307.56,-287.661 1280.59,-274.711 1258.06,-263.895"/>
<polygon fill="grey" stroke="grey" stroke-width="2" points="1259.56,-260.731 1249.03,-259.558 1256.53,-267.042 1259.56,-260.731"/>
</g>
<!-- 24 -->
<g id="node25" class="node"><title>24</title>
<path fill="none" stroke="#d6d856" stroke-width="2" d="M1620,-334C1620,-334 1513,-334 1513,-334 1507,-334 1501,-328 1501,-322 1501,-322 1501,-310 1501,-310 1501,-304 1507,-298 1513,-298 1513,-298 1620,-298 1620,-298 1626,-298 1632,-304 1632,-310 1632,-310 1632,-322 1632,-322 1632,-328 1626,-334 1620,-334"/>
<text text-anchor="middle" x="1566.5" y="-319" font-family="sans" font-size="10.00">bwa_align</text>
<text text-anchor="middle" x="1566.5" y="-308" font-family="sans" font-size="10.00">sample: samp1_ip.rep1</text>
</g>
<!-- 24&#45;&gt;18 -->
<g id="edge24" class="edge"><title>24&#45;&gt;18</title>
<path fill="none" stroke="grey" stroke-width="2" d="M1518.88,-297.91C1491.95,-288.244 1457.91,-276.027 1428.65,-265.526"/>
<polygon fill="grey" stroke="grey" stroke-width="2" points="1429.53,-262.12 1418.93,-262.037 1427.16,-268.709 1429.53,-262.12"/>
</g>
<!-- 34 -->
<g id="node35" class="node"><title>34</title>
<path fill="none" stroke="#56d89a" stroke-width="2" d="M1729.5,-259.5C1729.5,-259.5 1637.5,-259.5 1637.5,-259.5 1631.5,-259.5 1625.5,-253.5 1625.5,-247.5 1625.5,-247.5 1625.5,-235.5 1625.5,-235.5 1625.5,-229.5 1631.5,-223.5 1637.5,-223.5 1637.5,-223.5 1729.5,-223.5 1729.5,-223.5 1735.5,-223.5 1741.5,-229.5 1741.5,-235.5 1741.5,-235.5 1741.5,-247.5 1741.5,-247.5 1741.5,-253.5 1735.5,-259.5 1729.5,-259.5"/>
<text text-anchor="middle" x="1683.5" y="-239" font-family="sans" font-size="10.00">coverage_normalize</text>
</g>
<!-- 24&#45;&gt;34 -->
<g id="edge46" class="edge"><title>24&#45;&gt;34</title>
<path fill="none" stroke="grey" stroke-width="2" d="M1594.23,-297.819C1610.11,-287.977 1630.22,-275.514 1647.33,-264.91"/>
<polygon fill="grey" stroke="grey" stroke-width="2" points="1649.31,-267.801 1655.97,-259.558 1645.63,-261.85 1649.31,-267.801"/>
</g>
<!-- 25 -->
<g id="node26" class="node"><title>25</title>
<path fill="none" stroke="#d6d856" stroke-width="2" d="M1827,-334C1827,-334 1720,-334 1720,-334 1714,-334 1708,-328 1708,-322 1708,-322 1708,-310 1708,-310 1708,-304 1714,-298 1720,-298 1720,-298 1827,-298 1827,-298 1833,-298 1839,-304 1839,-310 1839,-310 1839,-322 1839,-322 1839,-328 1833,-334 1827,-334"/>
<text text-anchor="middle" x="1773.5" y="-319" font-family="sans" font-size="10.00">bwa_align</text>
<text text-anchor="middle" x="1773.5" y="-308" font-family="sans" font-size="10.00">sample: samp1_ip.rep2</text>
</g>
<!-- 25&#45;&gt;19 -->
<g id="edge26" class="edge"><title>25&#45;&gt;19</title>
<path fill="none" stroke="grey" stroke-width="2" d="M1716.69,-297.91C1684,-288.076 1642.53,-275.601 1607.23,-264.98"/>
<polygon fill="grey" stroke="grey" stroke-width="2" points="1608.03,-261.566 1597.44,-262.037 1606.01,-268.269 1608.03,-261.566"/>
</g>
<!-- 31 -->
<g id="node32" class="node"><title>31</title>
<path fill="none" stroke="#56d89a" stroke-width="2" d="M1863.5,-259.5C1863.5,-259.5 1771.5,-259.5 1771.5,-259.5 1765.5,-259.5 1759.5,-253.5 1759.5,-247.5 1759.5,-247.5 1759.5,-235.5 1759.5,-235.5 1759.5,-229.5 1765.5,-223.5 1771.5,-223.5 1771.5,-223.5 1863.5,-223.5 1863.5,-223.5 1869.5,-223.5 1875.5,-229.5 1875.5,-235.5 1875.5,-235.5 1875.5,-247.5 1875.5,-247.5 1875.5,-253.5 1869.5,-259.5 1863.5,-259.5"/>
<text text-anchor="middle" x="1817.5" y="-239" font-family="sans" font-size="10.00">coverage_normalize</text>
</g>
<!-- 25&#45;&gt;31 -->
<g id="edge43" class="edge"><title>25&#45;&gt;31</title>
<path fill="none" stroke="grey" stroke-width="2" d="M1783.93,-297.819C1789.3,-288.97 1795.95,-278.003 1801.92,-268.173"/>
<polygon fill="grey" stroke="grey" stroke-width="2" points="1804.95,-269.923 1807.15,-259.558 1798.97,-266.291 1804.95,-269.923"/>
</g>
<!-- 26 -->
<g id="node27" class="node"><title>26</title>
<path fill="none" stroke="#d6d856" stroke-width="2" d="M2302.5,-334C2302.5,-334 2204.5,-334 2204.5,-334 2198.5,-334 2192.5,-328 2192.5,-322 2192.5,-322 2192.5,-310 2192.5,-310 2192.5,-304 2198.5,-298 2204.5,-298 2204.5,-298 2302.5,-298 2302.5,-298 2308.5,-298 2314.5,-304 2314.5,-310 2314.5,-310 2314.5,-322 2314.5,-322 2314.5,-328 2308.5,-334 2302.5,-334"/>
<text text-anchor="middle" x="2253.5" y="-319" font-family="sans" font-size="10.00">bwa_align</text>
<text text-anchor="middle" x="2253.5" y="-308" font-family="sans" font-size="10.00">sample: samp2_input</text>
</g>
<!-- 26&#45;&gt;20 -->
<g id="edge27" class="edge"><title>26&#45;&gt;20</title>
<path fill="none" stroke="grey" stroke-width="2" d="M2217.72,-297.819C2198.27,-288.481 2173.9,-276.783 2152.6,-266.553"/>
<polygon fill="grey" stroke="grey" stroke-width="2" points="2153.89,-263.293 2143.36,-262.12 2150.86,-269.603 2153.89,-263.293"/>
</g>
<!-- 26&#45;&gt;21 -->
<g id="edge29" class="edge"><title>26&#45;&gt;21</title>
<path fill="none" stroke="grey" stroke-width="2" d="M2289.28,-297.819C2308.73,-288.481 2333.1,-276.783 2354.4,-266.553"/>
<polygon fill="grey" stroke="grey" stroke-width="2" points="2356.14,-269.603 2363.64,-262.12 2353.11,-263.293 2356.14,-269.603"/>
</g>
<!-- 30 -->
<g id="node31" class="node"><title>30</title>
<path fill="none" stroke="#56d89a" stroke-width="2" d="M2299.5,-259.5C2299.5,-259.5 2207.5,-259.5 2207.5,-259.5 2201.5,-259.5 2195.5,-253.5 2195.5,-247.5 2195.5,-247.5 2195.5,-235.5 2195.5,-235.5 2195.5,-229.5 2201.5,-223.5 2207.5,-223.5 2207.5,-223.5 2299.5,-223.5 2299.5,-223.5 2305.5,-223.5 2311.5,-229.5 2311.5,-235.5 2311.5,-235.5 2311.5,-247.5 2311.5,-247.5 2311.5,-253.5 2305.5,-259.5 2299.5,-259.5"/>
<text text-anchor="middle" x="2253.5" y="-239" font-family="sans" font-size="10.00">coverage_normalize</text>
</g>
<!-- 26&#45;&gt;30 -->
<g id="edge42" class="edge"><title>26&#45;&gt;30</title>
<path fill="none" stroke="grey" stroke-width="2" d="M2253.5,-297.819C2253.5,-289.422 2253.5,-279.116 2253.5,-269.686"/>
<polygon fill="grey" stroke="grey" stroke-width="2" points="2257,-269.558 2253.5,-259.558 2250,-269.558 2257,-269.558"/>
</g>
<!-- 27 -->
<g id="node28" class="node"><title>27</title>
<path fill="none" stroke="#d6d856" stroke-width="2" d="M2048,-334C2048,-334 1941,-334 1941,-334 1935,-334 1929,-328 1929,-322 1929,-322 1929,-310 1929,-310 1929,-304 1935,-298 1941,-298 1941,-298 2048,-298 2048,-298 2054,-298 2060,-304 2060,-310 2060,-310 2060,-322 2060,-322 2060,-328 2054,-334 2048,-334"/>
<text text-anchor="middle" x="1994.5" y="-319" font-family="sans" font-size="10.00">bwa_align</text>
<text text-anchor="middle" x="1994.5" y="-308" font-family="sans" font-size="10.00">sample: samp2_ip.rep1</text>
</g>
<!-- 27&#45;&gt;20 -->
<g id="edge28" class="edge"><title>27&#45;&gt;20</title>
<path fill="none" stroke="grey" stroke-width="2" d="M2020.09,-297.819C2033.44,-288.858 2050.03,-277.723 2064.81,-267.798"/>
<polygon fill="grey" stroke="grey" stroke-width="2" points="2066.92,-270.599 2073.27,-262.12 2063.02,-264.787 2066.92,-270.599"/>
</g>
<!-- 29 -->
<g id="node30" class="node"><title>29</title>
<path fill="none" stroke="#56d89a" stroke-width="2" d="M1997.5,-259.5C1997.5,-259.5 1905.5,-259.5 1905.5,-259.5 1899.5,-259.5 1893.5,-253.5 1893.5,-247.5 1893.5,-247.5 1893.5,-235.5 1893.5,-235.5 1893.5,-229.5 1899.5,-223.5 1905.5,-223.5 1905.5,-223.5 1997.5,-223.5 1997.5,-223.5 2003.5,-223.5 2009.5,-229.5 2009.5,-235.5 2009.5,-235.5 2009.5,-247.5 2009.5,-247.5 2009.5,-253.5 2003.5,-259.5 1997.5,-259.5"/>
<text text-anchor="middle" x="1951.5" y="-239" font-family="sans" font-size="10.00">coverage_normalize</text>
</g>
<!-- 27&#45;&gt;29 -->
<g id="edge41" class="edge"><title>27&#45;&gt;29</title>
<path fill="none" stroke="grey" stroke-width="2" d="M1984.31,-297.819C1979.06,-288.97 1972.56,-278.003 1966.73,-268.173"/>
<polygon fill="grey" stroke="grey" stroke-width="2" points="1969.73,-266.374 1961.62,-259.558 1963.71,-269.945 1969.73,-266.374"/>
</g>
<!-- 28 -->
<g id="node29" class="node"><title>28</title>
<path fill="none" stroke="#d6d856" stroke-width="2" d="M2533,-334C2533,-334 2426,-334 2426,-334 2420,-334 2414,-328 2414,-322 2414,-322 2414,-310 2414,-310 2414,-304 2420,-298 2426,-298 2426,-298 2533,-298 2533,-298 2539,-298 2545,-304 2545,-310 2545,-310 2545,-322 2545,-322 2545,-328 2539,-334 2533,-334"/>
<text text-anchor="middle" x="2479.5" y="-319" font-family="sans" font-size="10.00">bwa_align</text>
<text text-anchor="middle" x="2479.5" y="-308" font-family="sans" font-size="10.00">sample: samp2_ip.rep2</text>
</g>
<!-- 28&#45;&gt;21 -->
<g id="edge30" class="edge"><title>28&#45;&gt;21</title>
<path fill="none" stroke="grey" stroke-width="2" d="M2461.73,-297.819C2452.89,-289.276 2442.01,-278.759 2432.12,-269.197"/>
<polygon fill="grey" stroke="grey" stroke-width="2" points="2434.42,-266.553 2424.8,-262.12 2429.55,-271.586 2434.42,-266.553"/>
</g>
<!-- 33 -->
<g id="node34" class="node"><title>33</title>
<path fill="none" stroke="#56d89a" stroke-width="2" d="M2601.5,-259.5C2601.5,-259.5 2509.5,-259.5 2509.5,-259.5 2503.5,-259.5 2497.5,-253.5 2497.5,-247.5 2497.5,-247.5 2497.5,-235.5 2497.5,-235.5 2497.5,-229.5 2503.5,-223.5 2509.5,-223.5 2509.5,-223.5 2601.5,-223.5 2601.5,-223.5 2607.5,-223.5 2613.5,-229.5 2613.5,-235.5 2613.5,-235.5 2613.5,-247.5 2613.5,-247.5 2613.5,-253.5 2607.5,-259.5 2601.5,-259.5"/>
<text text-anchor="middle" x="2555.5" y="-239" font-family="sans" font-size="10.00">coverage_normalize</text>
</g>
<!-- 28&#45;&gt;33 -->
<g id="edge45" class="edge"><title>28&#45;&gt;33</title>
<path fill="none" stroke="grey" stroke-width="2" d="M2497.51,-297.819C2507.26,-288.519 2519.46,-276.878 2530.16,-266.677"/>
<polygon fill="grey" stroke="grey" stroke-width="2" points="2532.8,-268.993 2537.62,-259.558 2527.97,-263.928 2532.8,-268.993"/>
</g>
<!-- 29&#45;&gt;22 -->
<g id="edge35" class="edge"><title>29&#45;&gt;22</title>
<path fill="none" stroke="grey" stroke-width="2" d="M1929.46,-223.319C1917.18,-213.748 1901.73,-201.698 1888.38,-191.29"/>
<polygon fill="grey" stroke="grey" stroke-width="2" points="1890.42,-188.446 1880.38,-185.058 1886.12,-193.967 1890.42,-188.446"/>
</g>
<!-- 30&#45;&gt;22 -->
<g id="edge36" class="edge"><title>30&#45;&gt;22</title>
<path fill="none" stroke="grey" stroke-width="2" d="M2196.6,-223.424C2193.2,-222.562 2189.81,-221.746 2186.5,-221 2103.27,-202.239 2006.73,-187.465 1940.03,-178.333"/>
<polygon fill="grey" stroke="grey" stroke-width="2" points="1940.38,-174.849 1930,-176.972 1939.44,-181.785 1940.38,-174.849"/>
</g>
<!-- 31&#45;&gt;22 -->
<g id="edge37" class="edge"><title>31&#45;&gt;22</title>
<path fill="none" stroke="grey" stroke-width="2" d="M1827.22,-223.319C1832.17,-214.56 1838.3,-203.726 1843.81,-193.974"/>
<polygon fill="grey" stroke="grey" stroke-width="2" points="1846.98,-195.486 1848.85,-185.058 1840.88,-192.04 1846.98,-195.486"/>
</g>
<!-- 32&#45;&gt;22 -->
<g id="edge38" class="edge"><title>32&#45;&gt;22</title>
<path fill="none" stroke="grey" stroke-width="2" d="M1268.87,-223.474C1272.78,-222.551 1276.69,-221.712 1280.5,-221 1462.92,-186.905 1511.76,-202.685 1696.5,-185 1722.59,-182.502 1751.03,-179.584 1776.69,-176.878"/>
<polygon fill="grey" stroke="grey" stroke-width="2" points="1777.18,-180.346 1786.75,-175.813 1776.44,-173.385 1777.18,-180.346"/>
</g>
<!-- 33&#45;&gt;22 -->
<g id="edge39" class="edge"><title>33&#45;&gt;22</title>
<path fill="none" stroke="grey" stroke-width="2" d="M2500.14,-223.431C2496.22,-222.519 2492.31,-221.694 2488.5,-221 2282.82,-183.59 2227.69,-203.978 2019.5,-185 1993.68,-182.646 1965.56,-179.781 1940.15,-177.079"/>
<polygon fill="grey" stroke="grey" stroke-width="2" points="1940.5,-173.597 1930.19,-176.013 1939.76,-180.557 1940.5,-173.597"/>
</g>
<!-- 34&#45;&gt;22 -->
<g id="edge40" class="edge"><title>34&#45;&gt;22</title>
<path fill="none" stroke="grey" stroke-width="2" d="M1724.97,-223.319C1749.82,-213.025 1781.58,-199.865 1807.9,-188.963"/>
<polygon fill="grey" stroke="grey" stroke-width="2" points="1809.43,-192.119 1817.33,-185.058 1806.75,-185.652 1809.43,-192.119"/>
</g>
</g>
</svg>
