<?xml version="1.0" encoding="UTF-8" standalone="no"?>
<!DOCTYPE svg PUBLIC "-//W3C//DTD SVG 1.1//EN"
 "http://www.w3.org/Graphics/SVG/1.1/DTD/svg11.dtd">
<!-- Generated by graphviz version 2.38.0 (20140413.2041)
 -->
<!-- Title: snakemake_dag Pages: 1 -->
<svg width="2519pt" height="342pt"
 viewBox="0.00 0.00 2518.50 342.00" xmlns="http://www.w3.org/2000/svg" xmlns:xlink="http://www.w3.org/1999/xlink">
<g id="graph0" class="graph" transform="scale(1 1) rotate(0) translate(4 338)">
<title>snakemake_dag</title>
<polygon fill="white" stroke="none" points="-4,4 -4,-338 2514.5,-338 2514.5,4 -4,4"/>
<!-- 0 -->
<g id="node1" class="node"><title>0</title>
<path fill="none" stroke="#56d89a" stroke-width="2" d="M970.5,-36C970.5,-36 940.5,-36 940.5,-36 934.5,-36 928.5,-30 928.5,-24 928.5,-24 928.5,-12 928.5,-12 928.5,-6 934.5,-0 940.5,-0 940.5,-0 970.5,-0 970.5,-0 976.5,-0 982.5,-6 982.5,-12 982.5,-12 982.5,-24 982.5,-24 982.5,-30 976.5,-36 970.5,-36"/>
<text text-anchor="middle" x="955.5" y="-15.5" font-family="sans" font-size="10.00">all</text>
</g>
<!-- 1 -->
<g id="node2" class="node"><title>1</title>
<path fill="none" stroke="#d89556" stroke-width="2" d="M119,-113C119,-113 12,-113 12,-113 6,-113 0,-107 0,-101 0,-101 0,-84 0,-84 0,-78 6,-72 12,-72 12,-72 119,-72 119,-72 125,-72 131,-78 131,-84 131,-84 131,-101 131,-101 131,-107 125,-113 119,-113"/>
<text text-anchor="middle" x="65.5" y="-101" font-family="sans" font-size="10.00">fastqc</text>
<text text-anchor="middle" x="65.5" y="-90" font-family="sans" font-size="10.00">read: R1</text>
<text text-anchor="middle" x="65.5" y="-79" font-family="sans" font-size="10.00">sample: samp2_ip.rep2</text>
</g>
<!-- 1&#45;&gt;0 -->
<g id="edge1" class="edge"><title>1&#45;&gt;0</title>
<path fill="none" stroke="grey" stroke-width="2" d="M131.2,-73.6664C134.334,-73.0529 137.445,-72.4919 140.5,-72 437.455,-24.1831 801.875,-19.2199 918.06,-18.9232"/>
<polygon fill="grey" stroke="grey" stroke-width="2" points="918.211,-22.423 928.206,-18.9078 918.2,-15.423 918.211,-22.423"/>
</g>
<!-- 2 -->
<g id="node3" class="node"><title>2</title>
<path fill="none" stroke="#d89556" stroke-width="2" d="M268,-113C268,-113 161,-113 161,-113 155,-113 149,-107 149,-101 149,-101 149,-84 149,-84 149,-78 155,-72 161,-72 161,-72 268,-72 268,-72 274,-72 280,-78 280,-84 280,-84 280,-101 280,-101 280,-107 274,-113 268,-113"/>
<text text-anchor="middle" x="214.5" y="-101" font-family="sans" font-size="10.00">fastqc</text>
<text text-anchor="middle" x="214.5" y="-90" font-family="sans" font-size="10.00">read: R2</text>
<text text-anchor="middle" x="214.5" y="-79" font-family="sans" font-size="10.00">sample: samp2_ip.rep2</text>
</g>
<!-- 2&#45;&gt;0 -->
<g id="edge2" class="edge"><title>2&#45;&gt;0</title>
<path fill="none" stroke="grey" stroke-width="2" d="M280.209,-73.7214C283.34,-73.0931 286.449,-72.514 289.5,-72 526.733,-32.0364 816.729,-22.0394 918.268,-19.6841"/>
<polygon fill="grey" stroke="grey" stroke-width="2" points="918.409,-23.182 928.329,-19.4618 918.254,-16.1837 918.409,-23.182"/>
</g>
<!-- 3 -->
<g id="node4" class="node"><title>3</title>
<path fill="none" stroke="#d89556" stroke-width="2" d="M417,-113C417,-113 310,-113 310,-113 304,-113 298,-107 298,-101 298,-101 298,-84 298,-84 298,-78 304,-72 310,-72 310,-72 417,-72 417,-72 423,-72 429,-78 429,-84 429,-84 429,-101 429,-101 429,-107 423,-113 417,-113"/>
<text text-anchor="middle" x="363.5" y="-101" font-family="sans" font-size="10.00">fastqc</text>
<text text-anchor="middle" x="363.5" y="-90" font-family="sans" font-size="10.00">read: R1</text>
<text text-anchor="middle" x="363.5" y="-79" font-family="sans" font-size="10.00">sample: samp1_ip.rep1</text>
</g>
<!-- 3&#45;&gt;0 -->
<g id="edge3" class="edge"><title>3&#45;&gt;0</title>
<path fill="none" stroke="grey" stroke-width="2" d="M429.225,-73.8075C432.351,-73.1562 435.455,-72.5487 438.5,-72 616.475,-39.9333 832.672,-25.5908 918.149,-20.875"/>
<polygon fill="grey" stroke="grey" stroke-width="2" points="918.59,-24.3564 928.386,-20.3221 918.212,-17.3666 918.59,-24.3564"/>
</g>
<!-- 4 -->
<g id="node5" class="node"><title>4</title>
<path fill="none" stroke="#d89556" stroke-width="2" d="M566,-113C566,-113 459,-113 459,-113 453,-113 447,-107 447,-101 447,-101 447,-84 447,-84 447,-78 453,-72 459,-72 459,-72 566,-72 566,-72 572,-72 578,-78 578,-84 578,-84 578,-101 578,-101 578,-107 572,-113 566,-113"/>
<text text-anchor="middle" x="512.5" y="-101" font-family="sans" font-size="10.00">fastqc</text>
<text text-anchor="middle" x="512.5" y="-90" font-family="sans" font-size="10.00">read: R2</text>
<text text-anchor="middle" x="512.5" y="-79" font-family="sans" font-size="10.00">sample: samp1_ip.rep1</text>
</g>
<!-- 4&#45;&gt;0 -->
<g id="edge4" class="edge"><title>4&#45;&gt;0</title>
<path fill="none" stroke="grey" stroke-width="2" d="M578.254,-73.9619C581.373,-73.2693 584.467,-72.6108 587.5,-72 707.329,-47.8712 851.243,-30.4386 918.041,-22.9985"/>
<polygon fill="grey" stroke="grey" stroke-width="2" points="918.528,-26.4661 928.084,-21.8908 917.76,-19.5083 918.528,-26.4661"/>
</g>
<!-- 5 -->
<g id="node6" class="node"><title>5</title>
<path fill="none" stroke="#d89556" stroke-width="2" d="M715,-113C715,-113 608,-113 608,-113 602,-113 596,-107 596,-101 596,-101 596,-84 596,-84 596,-78 602,-72 608,-72 608,-72 715,-72 715,-72 721,-72 727,-78 727,-84 727,-84 727,-101 727,-101 727,-107 721,-113 715,-113"/>
<text text-anchor="middle" x="661.5" y="-101" font-family="sans" font-size="10.00">fastqc</text>
<text text-anchor="middle" x="661.5" y="-90" font-family="sans" font-size="10.00">read: R1</text>
<text text-anchor="middle" x="661.5" y="-79" font-family="sans" font-size="10.00">sample: samp1_ip.rep2</text>
</g>
<!-- 5&#45;&gt;0 -->
<g id="edge5" class="edge"><title>5&#45;&gt;0</title>
<path fill="none" stroke="grey" stroke-width="2" d="M727.334,-74.3159C730.431,-73.5286 733.499,-72.7533 736.5,-72 800.429,-55.9548 875.074,-38.0715 918.636,-27.7203"/>
<polygon fill="grey" stroke="grey" stroke-width="2" points="919.571,-31.0958 928.492,-25.3808 917.954,-24.285 919.571,-31.0958"/>
</g>
<!-- 6 -->
<g id="node7" class="node"><title>6</title>
<path fill="none" stroke="#d89556" stroke-width="2" d="M864,-113C864,-113 757,-113 757,-113 751,-113 745,-107 745,-101 745,-101 745,-84 745,-84 745,-78 751,-72 757,-72 757,-72 864,-72 864,-72 870,-72 876,-78 876,-84 876,-84 876,-101 876,-101 876,-107 870,-113 864,-113"/>
<text text-anchor="middle" x="810.5" y="-101" font-family="sans" font-size="10.00">fastqc</text>
<text text-anchor="middle" x="810.5" y="-90" font-family="sans" font-size="10.00">read: R2</text>
<text text-anchor="middle" x="810.5" y="-79" font-family="sans" font-size="10.00">sample: samp1_ip.rep2</text>
</g>
<!-- 6&#45;&gt;0 -->
<g id="edge6" class="edge"><title>6&#45;&gt;0</title>
<path fill="none" stroke="grey" stroke-width="2" d="M849.739,-71.8805C871.365,-61.0675 898.032,-47.7342 919.177,-37.1613"/>
<polygon fill="grey" stroke="grey" stroke-width="2" points="920.789,-40.2687 928.168,-32.666 917.659,-34.0077 920.789,-40.2687"/>
</g>
<!-- 7 -->
<g id="node8" class="node"><title>7</title>
<path fill="none" stroke="#d89556" stroke-width="2" d="M1004.5,-113C1004.5,-113 906.5,-113 906.5,-113 900.5,-113 894.5,-107 894.5,-101 894.5,-101 894.5,-84 894.5,-84 894.5,-78 900.5,-72 906.5,-72 906.5,-72 1004.5,-72 1004.5,-72 1010.5,-72 1016.5,-78 1016.5,-84 1016.5,-84 1016.5,-101 1016.5,-101 1016.5,-107 1010.5,-113 1004.5,-113"/>
<text text-anchor="middle" x="955.5" y="-101" font-family="sans" font-size="10.00">fastqc</text>
<text text-anchor="middle" x="955.5" y="-90" font-family="sans" font-size="10.00">read: R1</text>
<text text-anchor="middle" x="955.5" y="-79" font-family="sans" font-size="10.00">sample: samp2_input</text>
</g>
<!-- 7&#45;&gt;0 -->
<g id="edge7" class="edge"><title>7&#45;&gt;0</title>
<path fill="none" stroke="grey" stroke-width="2" d="M955.5,-71.6891C955.5,-63.9066 955.5,-54.8417 955.5,-46.4471"/>
<polygon fill="grey" stroke="grey" stroke-width="2" points="959,-46.3194 955.5,-36.3195 952,-46.3195 959,-46.3194"/>
</g>
<!-- 8 -->
<g id="node9" class="node"><title>8</title>
<path fill="none" stroke="#d89556" stroke-width="2" d="M1144.5,-113C1144.5,-113 1046.5,-113 1046.5,-113 1040.5,-113 1034.5,-107 1034.5,-101 1034.5,-101 1034.5,-84 1034.5,-84 1034.5,-78 1040.5,-72 1046.5,-72 1046.5,-72 1144.5,-72 1144.5,-72 1150.5,-72 1156.5,-78 1156.5,-84 1156.5,-84 1156.5,-101 1156.5,-101 1156.5,-107 1150.5,-113 1144.5,-113"/>
<text text-anchor="middle" x="1095.5" y="-101" font-family="sans" font-size="10.00">fastqc</text>
<text text-anchor="middle" x="1095.5" y="-90" font-family="sans" font-size="10.00">read: R2</text>
<text text-anchor="middle" x="1095.5" y="-79" font-family="sans" font-size="10.00">sample: samp2_input</text>
</g>
<!-- 8&#45;&gt;0 -->
<g id="edge8" class="edge"><title>8&#45;&gt;0</title>
<path fill="none" stroke="grey" stroke-width="2" d="M1057.61,-71.8805C1037.11,-61.2615 1011.91,-48.2117 991.674,-37.7329"/>
<polygon fill="grey" stroke="grey" stroke-width="2" points="993.25,-34.6078 982.761,-33.1172 990.031,-40.8237 993.25,-34.6078"/>
</g>
<!-- 9 -->
<g id="node10" class="node"><title>9</title>
<path fill="none" stroke="#d89556" stroke-width="2" d="M1294,-113C1294,-113 1187,-113 1187,-113 1181,-113 1175,-107 1175,-101 1175,-101 1175,-84 1175,-84 1175,-78 1181,-72 1187,-72 1187,-72 1294,-72 1294,-72 1300,-72 1306,-78 1306,-84 1306,-84 1306,-101 1306,-101 1306,-107 1300,-113 1294,-113"/>
<text text-anchor="middle" x="1240.5" y="-101" font-family="sans" font-size="10.00">fastqc</text>
<text text-anchor="middle" x="1240.5" y="-90" font-family="sans" font-size="10.00">read: R1</text>
<text text-anchor="middle" x="1240.5" y="-79" font-family="sans" font-size="10.00">sample: samp2_ip.rep1</text>
</g>
<!-- 9&#45;&gt;0 -->
<g id="edge9" class="edge"><title>9&#45;&gt;0</title>
<path fill="none" stroke="grey" stroke-width="2" d="M1174.66,-74.3524C1171.56,-73.5553 1168.5,-72.7679 1165.5,-72 1104.93,-56.4825 1034.44,-38.7616 992.477,-28.2473"/>
<polygon fill="grey" stroke="grey" stroke-width="2" points="993.251,-24.8331 982.7,-25.7987 991.55,-31.6234 993.251,-24.8331"/>
</g>
<!-- 10 -->
<g id="node11" class="node"><title>10</title>
<path fill="none" stroke="#d89556" stroke-width="2" d="M1443,-113C1443,-113 1336,-113 1336,-113 1330,-113 1324,-107 1324,-101 1324,-101 1324,-84 1324,-84 1324,-78 1330,-72 1336,-72 1336,-72 1443,-72 1443,-72 1449,-72 1455,-78 1455,-84 1455,-84 1455,-101 1455,-101 1455,-107 1449,-113 1443,-113"/>
<text text-anchor="middle" x="1389.5" y="-101" font-family="sans" font-size="10.00">fastqc</text>
<text text-anchor="middle" x="1389.5" y="-90" font-family="sans" font-size="10.00">read: R2</text>
<text text-anchor="middle" x="1389.5" y="-79" font-family="sans" font-size="10.00">sample: samp2_ip.rep1</text>
</g>
<!-- 10&#45;&gt;0 -->
<g id="edge10" class="edge"><title>10&#45;&gt;0</title>
<path fill="none" stroke="grey" stroke-width="2" d="M1323.82,-73.7866C1321.02,-73.1585 1318.23,-72.5595 1315.5,-72 1198.83,-48.1179 1058.79,-30.6697 993.048,-23.1294"/>
<polygon fill="grey" stroke="grey" stroke-width="2" points="993.108,-19.6138 982.777,-21.9628 992.318,-26.5691 993.108,-19.6138"/>
</g>
<!-- 11 -->
<g id="node12" class="node"><title>11</title>
<path fill="none" stroke="#d89556" stroke-width="2" d="M1583.5,-113C1583.5,-113 1485.5,-113 1485.5,-113 1479.5,-113 1473.5,-107 1473.5,-101 1473.5,-101 1473.5,-84 1473.5,-84 1473.5,-78 1479.5,-72 1485.5,-72 1485.5,-72 1583.5,-72 1583.5,-72 1589.5,-72 1595.5,-78 1595.5,-84 1595.5,-84 1595.5,-101 1595.5,-101 1595.5,-107 1589.5,-113 1583.5,-113"/>
<text text-anchor="middle" x="1534.5" y="-101" font-family="sans" font-size="10.00">fastqc</text>
<text text-anchor="middle" x="1534.5" y="-90" font-family="sans" font-size="10.00">read: R1</text>
<text text-anchor="middle" x="1534.5" y="-79" font-family="sans" font-size="10.00">sample: samp1_input</text>
</g>
<!-- 11&#45;&gt;0 -->
<g id="edge11" class="edge"><title>11&#45;&gt;0</title>
<path fill="none" stroke="grey" stroke-width="2" d="M1473.18,-73.7896C1470.25,-73.1431 1467.35,-72.5415 1464.5,-72 1289.98,-38.8483 1077.57,-25.1508 992.919,-20.7419"/>
<polygon fill="grey" stroke="grey" stroke-width="2" points="992.936,-17.2384 982.772,-20.2264 992.581,-24.2294 992.936,-17.2384"/>
</g>
<!-- 12 -->
<g id="node13" class="node"><title>12</title>
<path fill="none" stroke="#d89556" stroke-width="2" d="M1723.5,-113C1723.5,-113 1625.5,-113 1625.5,-113 1619.5,-113 1613.5,-107 1613.5,-101 1613.5,-101 1613.5,-84 1613.5,-84 1613.5,-78 1619.5,-72 1625.5,-72 1625.5,-72 1723.5,-72 1723.5,-72 1729.5,-72 1735.5,-78 1735.5,-84 1735.5,-84 1735.5,-101 1735.5,-101 1735.5,-107 1729.5,-113 1723.5,-113"/>
<text text-anchor="middle" x="1674.5" y="-101" font-family="sans" font-size="10.00">fastqc</text>
<text text-anchor="middle" x="1674.5" y="-90" font-family="sans" font-size="10.00">read: R2</text>
<text text-anchor="middle" x="1674.5" y="-79" font-family="sans" font-size="10.00">sample: samp1_input</text>
</g>
<!-- 12&#45;&gt;0 -->
<g id="edge12" class="edge"><title>12&#45;&gt;0</title>
<path fill="none" stroke="grey" stroke-width="2" d="M1613.19,-73.7106C1610.26,-73.0852 1607.36,-72.5097 1604.5,-72 1374.44,-30.948 1092.75,-21.636 992.817,-19.5721"/>
<polygon fill="grey" stroke="grey" stroke-width="2" points="992.695,-16.0692 982.629,-19.3742 992.559,-23.0679 992.695,-16.0692"/>
</g>
<!-- 13 -->
<g id="node14" class="node"><title>13</title>
<path fill="none" stroke="#56d8d8" stroke-width="2" d="M1797.5,-110.5C1797.5,-110.5 1765.5,-110.5 1765.5,-110.5 1759.5,-110.5 1753.5,-104.5 1753.5,-98.5 1753.5,-98.5 1753.5,-86.5 1753.5,-86.5 1753.5,-80.5 1759.5,-74.5 1765.5,-74.5 1765.5,-74.5 1797.5,-74.5 1797.5,-74.5 1803.5,-74.5 1809.5,-80.5 1809.5,-86.5 1809.5,-86.5 1809.5,-98.5 1809.5,-98.5 1809.5,-104.5 1803.5,-110.5 1797.5,-110.5"/>
<text text-anchor="middle" x="1781.5" y="-90" font-family="sans" font-size="10.00">pearson</text>
</g>
<!-- 13&#45;&gt;0 -->
<g id="edge13" class="edge"><title>13&#45;&gt;0</title>
<path fill="none" stroke="grey" stroke-width="2" d="M1753.31,-75.1449C1750.4,-73.9146 1747.43,-72.8312 1744.5,-72 1600.62,-31.2409 1130.25,-21.4713 993.257,-19.4647"/>
<polygon fill="grey" stroke="grey" stroke-width="2" points="992.922,-15.9597 982.874,-19.3183 992.824,-22.9591 992.922,-15.9597"/>
</g>
<!-- 14 -->
<g id="node15" class="node"><title>14</title>
<path fill="none" stroke="#59d856" stroke-width="2" d="M1841,-185C1841,-185 1722,-185 1722,-185 1716,-185 1710,-179 1710,-173 1710,-173 1710,-161 1710,-161 1710,-155 1716,-149 1722,-149 1722,-149 1841,-149 1841,-149 1847,-149 1853,-155 1853,-161 1853,-161 1853,-173 1853,-173 1853,-179 1847,-185 1841,-185"/>
<text text-anchor="middle" x="1781.5" y="-164.5" font-family="sans" font-size="10.00">multiBigwig_norm_counts</text>
</g>
<!-- 14&#45;&gt;13 -->
<g id="edge14" class="edge"><title>14&#45;&gt;13</title>
<path fill="none" stroke="grey" stroke-width="2" d="M1781.5,-148.819C1781.5,-140.422 1781.5,-130.116 1781.5,-120.686"/>
<polygon fill="grey" stroke="grey" stroke-width="2" points="1785,-120.558 1781.5,-110.558 1778,-120.558 1785,-120.558"/>
</g>
<!-- 15 -->
<g id="node16" class="node"><title>15</title>
<path fill="none" stroke="#d85656" stroke-width="2" d="M1324.5,-262C1324.5,-262 1198.5,-262 1198.5,-262 1192.5,-262 1186.5,-256 1186.5,-250 1186.5,-250 1186.5,-233 1186.5,-233 1186.5,-227 1192.5,-221 1198.5,-221 1198.5,-221 1324.5,-221 1324.5,-221 1330.5,-221 1336.5,-227 1336.5,-233 1336.5,-233 1336.5,-250 1336.5,-250 1336.5,-256 1330.5,-262 1324.5,-262"/>
<text text-anchor="middle" x="1261.5" y="-250" font-family="sans" font-size="10.00">macs2_call_broadpeaks</text>
<text text-anchor="middle" x="1261.5" y="-239" font-family="sans" font-size="10.00">ctrl_samp: samp1_input</text>
<text text-anchor="middle" x="1261.5" y="-228" font-family="sans" font-size="10.00">treat_samp: samp1_ip.rep1</text>
</g>
<!-- 15&#45;&gt;14 -->
<g id="edge15" class="edge"><title>15&#45;&gt;14</title>
<path fill="none" stroke="grey" stroke-width="2" d="M1336.52,-222.664C1339.55,-222.078 1342.55,-221.52 1345.5,-221 1468.12,-199.379 1611.69,-183.777 1699.61,-175.312"/>
<polygon fill="grey" stroke="grey" stroke-width="2" points="1700.16,-178.775 1709.78,-174.34 1699.5,-171.807 1700.16,-178.775"/>
</g>
<!-- 16 -->
<g id="node17" class="node"><title>16</title>
<path fill="none" stroke="#d85656" stroke-width="2" d="M1626.5,-262C1626.5,-262 1500.5,-262 1500.5,-262 1494.5,-262 1488.5,-256 1488.5,-250 1488.5,-250 1488.5,-233 1488.5,-233 1488.5,-227 1494.5,-221 1500.5,-221 1500.5,-221 1626.5,-221 1626.5,-221 1632.5,-221 1638.5,-227 1638.5,-233 1638.5,-233 1638.5,-250 1638.5,-250 1638.5,-256 1632.5,-262 1626.5,-262"/>
<text text-anchor="middle" x="1563.5" y="-250" font-family="sans" font-size="10.00">macs2_call_broadpeaks</text>
<text text-anchor="middle" x="1563.5" y="-239" font-family="sans" font-size="10.00">ctrl_samp: samp1_input</text>
<text text-anchor="middle" x="1563.5" y="-228" font-family="sans" font-size="10.00">treat_samp: samp1_ip.rep2</text>
</g>
<!-- 16&#45;&gt;14 -->
<g id="edge16" class="edge"><title>16&#45;&gt;14</title>
<path fill="none" stroke="grey" stroke-width="2" d="M1622.21,-220.976C1652.59,-210.871 1689.65,-198.546 1720.38,-188.328"/>
<polygon fill="grey" stroke="grey" stroke-width="2" points="1721.73,-191.566 1730.11,-185.09 1719.52,-184.924 1721.73,-191.566"/>
</g>
<!-- 17 -->
<g id="node18" class="node"><title>17</title>
<path fill="none" stroke="#d85656" stroke-width="2" d="M2062.5,-262C2062.5,-262 1936.5,-262 1936.5,-262 1930.5,-262 1924.5,-256 1924.5,-250 1924.5,-250 1924.5,-233 1924.5,-233 1924.5,-227 1930.5,-221 1936.5,-221 1936.5,-221 2062.5,-221 2062.5,-221 2068.5,-221 2074.5,-227 2074.5,-233 2074.5,-233 2074.5,-250 2074.5,-250 2074.5,-256 2068.5,-262 2062.5,-262"/>
<text text-anchor="middle" x="1999.5" y="-250" font-family="sans" font-size="10.00">macs2_call_broadpeaks</text>
<text text-anchor="middle" x="1999.5" y="-239" font-family="sans" font-size="10.00">ctrl_samp: samp2_input</text>
<text text-anchor="middle" x="1999.5" y="-228" font-family="sans" font-size="10.00">treat_samp: samp2_ip.rep1</text>
</g>
<!-- 17&#45;&gt;14 -->
<g id="edge17" class="edge"><title>17&#45;&gt;14</title>
<path fill="none" stroke="grey" stroke-width="2" d="M1940.79,-220.976C1910.41,-210.871 1873.35,-198.546 1842.62,-188.328"/>
<polygon fill="grey" stroke="grey" stroke-width="2" points="1843.48,-184.924 1832.89,-185.09 1841.27,-191.566 1843.48,-184.924"/>
</g>
<!-- 18 -->
<g id="node19" class="node"><title>18</title>
<path fill="none" stroke="#d85656" stroke-width="2" d="M2230.5,-262C2230.5,-262 2104.5,-262 2104.5,-262 2098.5,-262 2092.5,-256 2092.5,-250 2092.5,-250 2092.5,-233 2092.5,-233 2092.5,-227 2098.5,-221 2104.5,-221 2104.5,-221 2230.5,-221 2230.5,-221 2236.5,-221 2242.5,-227 2242.5,-233 2242.5,-233 2242.5,-250 2242.5,-250 2242.5,-256 2236.5,-262 2230.5,-262"/>
<text text-anchor="middle" x="2167.5" y="-250" font-family="sans" font-size="10.00">macs2_call_broadpeaks</text>
<text text-anchor="middle" x="2167.5" y="-239" font-family="sans" font-size="10.00">ctrl_samp: samp2_input</text>
<text text-anchor="middle" x="2167.5" y="-228" font-family="sans" font-size="10.00">treat_samp: samp2_ip.rep2</text>
</g>
<!-- 18&#45;&gt;14 -->
<g id="edge18" class="edge"><title>18&#45;&gt;14</title>
<path fill="none" stroke="grey" stroke-width="2" d="M2092.44,-222.862C2089.42,-222.221 2086.43,-221.598 2083.5,-221 2009.14,-205.855 1923.94,-191.142 1863.04,-181.076"/>
<polygon fill="grey" stroke="grey" stroke-width="2" points="1863.53,-177.611 1853.1,-179.439 1862.4,-184.518 1863.53,-177.611"/>
</g>
<!-- 19 -->
<g id="node20" class="node"><title>19</title>
<path fill="none" stroke="#d6d856" stroke-width="2" d="M2498.5,-259.5C2498.5,-259.5 2406.5,-259.5 2406.5,-259.5 2400.5,-259.5 2394.5,-253.5 2394.5,-247.5 2394.5,-247.5 2394.5,-235.5 2394.5,-235.5 2394.5,-229.5 2400.5,-223.5 2406.5,-223.5 2406.5,-223.5 2498.5,-223.5 2498.5,-223.5 2504.5,-223.5 2510.5,-229.5 2510.5,-235.5 2510.5,-235.5 2510.5,-247.5 2510.5,-247.5 2510.5,-253.5 2504.5,-259.5 2498.5,-259.5"/>
<text text-anchor="middle" x="2452.5" y="-239" font-family="sans" font-size="10.00">coverage_normalize</text>
</g>
<!-- 19&#45;&gt;14 -->
<g id="edge19" class="edge"><title>19&#45;&gt;14</title>
<path fill="none" stroke="grey" stroke-width="2" d="M2397.13,-223.479C2393.21,-222.555 2389.31,-221.715 2385.5,-221 2200.96,-186.394 1980.36,-174.282 1863.54,-170.119"/>
<polygon fill="grey" stroke="grey" stroke-width="2" points="1863.36,-166.611 1853.25,-169.763 1863.12,-173.606 1863.36,-166.611"/>
</g>
<!-- 20 -->
<g id="node21" class="node"><title>20</title>
<path fill="none" stroke="#d6d856" stroke-width="2" d="M1156.5,-259.5C1156.5,-259.5 1064.5,-259.5 1064.5,-259.5 1058.5,-259.5 1052.5,-253.5 1052.5,-247.5 1052.5,-247.5 1052.5,-235.5 1052.5,-235.5 1052.5,-229.5 1058.5,-223.5 1064.5,-223.5 1064.5,-223.5 1156.5,-223.5 1156.5,-223.5 1162.5,-223.5 1168.5,-229.5 1168.5,-235.5 1168.5,-235.5 1168.5,-247.5 1168.5,-247.5 1168.5,-253.5 1162.5,-259.5 1156.5,-259.5"/>
<text text-anchor="middle" x="1110.5" y="-239" font-family="sans" font-size="10.00">coverage_normalize</text>
</g>
<!-- 20&#45;&gt;14 -->
<g id="edge20" class="edge"><title>20&#45;&gt;14</title>
<path fill="none" stroke="grey" stroke-width="2" d="M1165.87,-223.479C1169.79,-222.555 1173.69,-221.715 1177.5,-221 1362.04,-186.394 1582.64,-174.282 1699.46,-170.119"/>
<polygon fill="grey" stroke="grey" stroke-width="2" points="1699.88,-173.606 1709.75,-169.763 1699.64,-166.611 1699.88,-173.606"/>
</g>
<!-- 21 -->
<g id="node22" class="node"><title>21</title>
<path fill="none" stroke="#d6d856" stroke-width="2" d="M1760.5,-259.5C1760.5,-259.5 1668.5,-259.5 1668.5,-259.5 1662.5,-259.5 1656.5,-253.5 1656.5,-247.5 1656.5,-247.5 1656.5,-235.5 1656.5,-235.5 1656.5,-229.5 1662.5,-223.5 1668.5,-223.5 1668.5,-223.5 1760.5,-223.5 1760.5,-223.5 1766.5,-223.5 1772.5,-229.5 1772.5,-235.5 1772.5,-235.5 1772.5,-247.5 1772.5,-247.5 1772.5,-253.5 1766.5,-259.5 1760.5,-259.5"/>
<text text-anchor="middle" x="1714.5" y="-239" font-family="sans" font-size="10.00">coverage_normalize</text>
</g>
<!-- 21&#45;&gt;14 -->
<g id="edge21" class="edge"><title>21&#45;&gt;14</title>
<path fill="none" stroke="grey" stroke-width="2" d="M1730.38,-223.319C1738.89,-214.109 1749.52,-202.604 1758.88,-192.475"/>
<polygon fill="grey" stroke="grey" stroke-width="2" points="1761.52,-194.778 1765.74,-185.058 1756.38,-190.027 1761.52,-194.778"/>
</g>
<!-- 22 -->
<g id="node23" class="node"><title>22</title>
<path fill="none" stroke="#d6d856" stroke-width="2" d="M1894.5,-259.5C1894.5,-259.5 1802.5,-259.5 1802.5,-259.5 1796.5,-259.5 1790.5,-253.5 1790.5,-247.5 1790.5,-247.5 1790.5,-235.5 1790.5,-235.5 1790.5,-229.5 1796.5,-223.5 1802.5,-223.5 1802.5,-223.5 1894.5,-223.5 1894.5,-223.5 1900.5,-223.5 1906.5,-229.5 1906.5,-235.5 1906.5,-235.5 1906.5,-247.5 1906.5,-247.5 1906.5,-253.5 1900.5,-259.5 1894.5,-259.5"/>
<text text-anchor="middle" x="1848.5" y="-239" font-family="sans" font-size="10.00">coverage_normalize</text>
</g>
<!-- 22&#45;&gt;14 -->
<g id="edge22" class="edge"><title>22&#45;&gt;14</title>
<path fill="none" stroke="grey" stroke-width="2" d="M1832.62,-223.319C1824.11,-214.109 1813.48,-202.604 1804.12,-192.475"/>
<polygon fill="grey" stroke="grey" stroke-width="2" points="1806.62,-190.027 1797.26,-185.058 1801.48,-194.778 1806.62,-190.027"/>
</g>
<!-- 23 -->
<g id="node24" class="node"><title>23</title>
<path fill="none" stroke="#d6d856" stroke-width="2" d="M2364.5,-259.5C2364.5,-259.5 2272.5,-259.5 2272.5,-259.5 2266.5,-259.5 2260.5,-253.5 2260.5,-247.5 2260.5,-247.5 2260.5,-235.5 2260.5,-235.5 2260.5,-229.5 2266.5,-223.5 2272.5,-223.5 2272.5,-223.5 2364.5,-223.5 2364.5,-223.5 2370.5,-223.5 2376.5,-229.5 2376.5,-235.5 2376.5,-235.5 2376.5,-247.5 2376.5,-247.5 2376.5,-253.5 2370.5,-259.5 2364.5,-259.5"/>
<text text-anchor="middle" x="2318.5" y="-239" font-family="sans" font-size="10.00">coverage_normalize</text>
</g>
<!-- 23&#45;&gt;14 -->
<g id="edge23" class="edge"><title>23&#45;&gt;14</title>
<path fill="none" stroke="grey" stroke-width="2" d="M2262.74,-223.498C2258.96,-222.583 2255.18,-221.738 2251.5,-221 2116.91,-194.032 1957.7,-179.685 1863.4,-172.975"/>
<polygon fill="grey" stroke="grey" stroke-width="2" points="1863.57,-169.479 1853.35,-172.272 1863.08,-176.462 1863.57,-169.479"/>
</g>
<!-- 24 -->
<g id="node25" class="node"><title>24</title>
<path fill="none" stroke="#d6d856" stroke-width="2" d="M1458.5,-259.5C1458.5,-259.5 1366.5,-259.5 1366.5,-259.5 1360.5,-259.5 1354.5,-253.5 1354.5,-247.5 1354.5,-247.5 1354.5,-235.5 1354.5,-235.5 1354.5,-229.5 1360.5,-223.5 1366.5,-223.5 1366.5,-223.5 1458.5,-223.5 1458.5,-223.5 1464.5,-223.5 1470.5,-229.5 1470.5,-235.5 1470.5,-235.5 1470.5,-247.5 1470.5,-247.5 1470.5,-253.5 1464.5,-259.5 1458.5,-259.5"/>
<text text-anchor="middle" x="1412.5" y="-239" font-family="sans" font-size="10.00">coverage_normalize</text>
</g>
<!-- 24&#45;&gt;14 -->
<g id="edge24" class="edge"><title>24&#45;&gt;14</title>
<path fill="none" stroke="grey" stroke-width="2" d="M1469.41,-223.477C1472.81,-222.602 1476.2,-221.768 1479.5,-221 1553.54,-203.783 1638.95,-189.283 1700,-179.825"/>
<polygon fill="grey" stroke="grey" stroke-width="2" points="1700.62,-183.272 1709.97,-178.293 1699.55,-176.354 1700.62,-183.272"/>
</g>
<!-- 25 -->
<g id="node26" class="node"><title>25</title>
<path fill="none" stroke="#569ad8" stroke-width="2" d="M1461.5,-334C1461.5,-334 1363.5,-334 1363.5,-334 1357.5,-334 1351.5,-328 1351.5,-322 1351.5,-322 1351.5,-310 1351.5,-310 1351.5,-304 1357.5,-298 1363.5,-298 1363.5,-298 1461.5,-298 1461.5,-298 1467.5,-298 1473.5,-304 1473.5,-310 1473.5,-310 1473.5,-322 1473.5,-322 1473.5,-328 1467.5,-334 1461.5,-334"/>
<text text-anchor="middle" x="1412.5" y="-319" font-family="sans" font-size="10.00">bwa_align</text>
<text text-anchor="middle" x="1412.5" y="-308" font-family="sans" font-size="10.00">sample: samp1_input</text>
</g>
<!-- 25&#45;&gt;15 -->
<g id="edge25" class="edge"><title>25&#45;&gt;15</title>
<path fill="none" stroke="grey" stroke-width="2" d="M1376.72,-297.819C1357.27,-288.481 1332.9,-276.783 1311.6,-266.553"/>
<polygon fill="grey" stroke="grey" stroke-width="2" points="1312.89,-263.293 1302.36,-262.12 1309.86,-269.603 1312.89,-263.293"/>
</g>
<!-- 25&#45;&gt;16 -->
<g id="edge27" class="edge"><title>25&#45;&gt;16</title>
<path fill="none" stroke="grey" stroke-width="2" d="M1448.28,-297.819C1467.73,-288.481 1492.1,-276.783 1513.4,-266.553"/>
<polygon fill="grey" stroke="grey" stroke-width="2" points="1515.14,-269.603 1522.64,-262.12 1512.11,-263.293 1515.14,-269.603"/>
</g>
<!-- 25&#45;&gt;24 -->
<g id="edge38" class="edge"><title>25&#45;&gt;24</title>
<path fill="none" stroke="grey" stroke-width="2" d="M1412.5,-297.819C1412.5,-289.422 1412.5,-279.116 1412.5,-269.686"/>
<polygon fill="grey" stroke="grey" stroke-width="2" points="1416,-269.558 1412.5,-259.558 1409,-269.558 1416,-269.558"/>
</g>
<!-- 26 -->
<g id="node27" class="node"><title>26</title>
<path fill="none" stroke="#569ad8" stroke-width="2" d="M1240,-334C1240,-334 1133,-334 1133,-334 1127,-334 1121,-328 1121,-322 1121,-322 1121,-310 1121,-310 1121,-304 1127,-298 1133,-298 1133,-298 1240,-298 1240,-298 1246,-298 1252,-304 1252,-310 1252,-310 1252,-322 1252,-322 1252,-328 1246,-334 1240,-334"/>
<text text-anchor="middle" x="1186.5" y="-319" font-family="sans" font-size="10.00">bwa_align</text>
<text text-anchor="middle" x="1186.5" y="-308" font-family="sans" font-size="10.00">sample: samp1_ip.rep1</text>
</g>
<!-- 26&#45;&gt;15 -->
<g id="edge26" class="edge"><title>26&#45;&gt;15</title>
<path fill="none" stroke="grey" stroke-width="2" d="M1204.27,-297.819C1213.11,-289.276 1223.99,-278.759 1233.88,-269.197"/>
<polygon fill="grey" stroke="grey" stroke-width="2" points="1236.45,-271.586 1241.2,-262.12 1231.58,-266.553 1236.45,-271.586"/>
</g>
<!-- 26&#45;&gt;20 -->
<g id="edge34" class="edge"><title>26&#45;&gt;20</title>
<path fill="none" stroke="grey" stroke-width="2" d="M1168.49,-297.819C1158.74,-288.519 1146.54,-276.878 1135.84,-266.677"/>
<polygon fill="grey" stroke="grey" stroke-width="2" points="1138.03,-263.928 1128.38,-259.558 1133.2,-268.993 1138.03,-263.928"/>
</g>
<!-- 27 -->
<g id="node28" class="node"><title>27</title>
<path fill="none" stroke="#569ad8" stroke-width="2" d="M1692,-334C1692,-334 1585,-334 1585,-334 1579,-334 1573,-328 1573,-322 1573,-322 1573,-310 1573,-310 1573,-304 1579,-298 1585,-298 1585,-298 1692,-298 1692,-298 1698,-298 1704,-304 1704,-310 1704,-310 1704,-322 1704,-322 1704,-328 1698,-334 1692,-334"/>
<text text-anchor="middle" x="1638.5" y="-319" font-family="sans" font-size="10.00">bwa_align</text>
<text text-anchor="middle" x="1638.5" y="-308" font-family="sans" font-size="10.00">sample: samp1_ip.rep2</text>
</g>
<!-- 27&#45;&gt;16 -->
<g id="edge28" class="edge"><title>27&#45;&gt;16</title>
<path fill="none" stroke="grey" stroke-width="2" d="M1620.73,-297.819C1611.89,-289.276 1601.01,-278.759 1591.12,-269.197"/>
<polygon fill="grey" stroke="grey" stroke-width="2" points="1593.42,-266.553 1583.8,-262.12 1588.55,-271.586 1593.42,-266.553"/>
</g>
<!-- 27&#45;&gt;21 -->
<g id="edge35" class="edge"><title>27&#45;&gt;21</title>
<path fill="none" stroke="grey" stroke-width="2" d="M1656.51,-297.819C1666.26,-288.519 1678.46,-276.878 1689.16,-266.677"/>
<polygon fill="grey" stroke="grey" stroke-width="2" points="1691.8,-268.993 1696.62,-259.558 1686.97,-263.928 1691.8,-268.993"/>
</g>
<!-- 28 -->
<g id="node29" class="node"><title>28</title>
<path fill="none" stroke="#569ad8" stroke-width="2" d="M2048.5,-334C2048.5,-334 1950.5,-334 1950.5,-334 1944.5,-334 1938.5,-328 1938.5,-322 1938.5,-322 1938.5,-310 1938.5,-310 1938.5,-304 1944.5,-298 1950.5,-298 1950.5,-298 2048.5,-298 2048.5,-298 2054.5,-298 2060.5,-304 2060.5,-310 2060.5,-310 2060.5,-322 2060.5,-322 2060.5,-328 2054.5,-334 2048.5,-334"/>
<text text-anchor="middle" x="1999.5" y="-319" font-family="sans" font-size="10.00">bwa_align</text>
<text text-anchor="middle" x="1999.5" y="-308" font-family="sans" font-size="10.00">sample: samp2_input</text>
</g>
<!-- 28&#45;&gt;17 -->
<g id="edge29" class="edge"><title>28&#45;&gt;17</title>
<path fill="none" stroke="grey" stroke-width="2" d="M1999.5,-297.819C1999.5,-290.198 1999.5,-281.005 1999.5,-272.32"/>
<polygon fill="grey" stroke="grey" stroke-width="2" points="2003,-272.12 1999.5,-262.12 1996,-272.12 2003,-272.12"/>
</g>
<!-- 28&#45;&gt;18 -->
<g id="edge31" class="edge"><title>28&#45;&gt;18</title>
<path fill="none" stroke="grey" stroke-width="2" d="M2039.31,-297.819C2061.24,-288.355 2088.79,-276.468 2112.72,-266.14"/>
<polygon fill="grey" stroke="grey" stroke-width="2" points="2114.24,-269.295 2122.04,-262.12 2111.47,-262.868 2114.24,-269.295"/>
</g>
<!-- 28&#45;&gt;22 -->
<g id="edge36" class="edge"><title>28&#45;&gt;22</title>
<path fill="none" stroke="grey" stroke-width="2" d="M1963.72,-297.819C1942.56,-287.661 1915.59,-274.711 1893.06,-263.895"/>
<polygon fill="grey" stroke="grey" stroke-width="2" points="1894.56,-260.731 1884.03,-259.558 1891.53,-267.042 1894.56,-260.731"/>
</g>
<!-- 29 -->
<g id="node30" class="node"><title>29</title>
<path fill="none" stroke="#569ad8" stroke-width="2" d="M2277,-334C2277,-334 2170,-334 2170,-334 2164,-334 2158,-328 2158,-322 2158,-322 2158,-310 2158,-310 2158,-304 2164,-298 2170,-298 2170,-298 2277,-298 2277,-298 2283,-298 2289,-304 2289,-310 2289,-310 2289,-322 2289,-322 2289,-328 2283,-334 2277,-334"/>
<text text-anchor="middle" x="2223.5" y="-319" font-family="sans" font-size="10.00">bwa_align</text>
<text text-anchor="middle" x="2223.5" y="-308" font-family="sans" font-size="10.00">sample: samp2_ip.rep1</text>
</g>
<!-- 29&#45;&gt;17 -->
<g id="edge30" class="edge"><title>29&#45;&gt;17</title>
<path fill="none" stroke="grey" stroke-width="2" d="M2170.7,-297.91C2140.57,-288.16 2102.43,-275.814 2069.8,-265.252"/>
<polygon fill="grey" stroke="grey" stroke-width="2" points="2070.45,-261.786 2059.86,-262.037 2068.3,-268.446 2070.45,-261.786"/>
</g>
<!-- 29&#45;&gt;23 -->
<g id="edge37" class="edge"><title>29&#45;&gt;23</title>
<path fill="none" stroke="grey" stroke-width="2" d="M2246.01,-297.819C2258.55,-288.248 2274.34,-276.198 2287.98,-265.79"/>
<polygon fill="grey" stroke="grey" stroke-width="2" points="2290.32,-268.407 2296.15,-259.558 2286.08,-262.843 2290.32,-268.407"/>
</g>
<!-- 30 -->
<g id="node31" class="node"><title>30</title>
<path fill="none" stroke="#569ad8" stroke-width="2" d="M2466,-334C2466,-334 2359,-334 2359,-334 2353,-334 2347,-328 2347,-322 2347,-322 2347,-310 2347,-310 2347,-304 2353,-298 2359,-298 2359,-298 2466,-298 2466,-298 2472,-298 2478,-304 2478,-310 2478,-310 2478,-322 2478,-322 2478,-328 2472,-334 2466,-334"/>
<text text-anchor="middle" x="2412.5" y="-319" font-family="sans" font-size="10.00">bwa_align</text>
<text text-anchor="middle" x="2412.5" y="-308" font-family="sans" font-size="10.00">sample: samp2_ip.rep2</text>
</g>
<!-- 30&#45;&gt;18 -->
<g id="edge32" class="edge"><title>30&#45;&gt;18</title>
<path fill="none" stroke="grey" stroke-width="2" d="M2354.75,-297.91C2321.52,-288.076 2279.36,-275.601 2243.47,-264.98"/>
<polygon fill="grey" stroke="grey" stroke-width="2" points="2244.1,-261.518 2233.52,-262.037 2242.12,-268.23 2244.1,-261.518"/>
</g>
<!-- 30&#45;&gt;19 -->
<g id="edge33" class="edge"><title>30&#45;&gt;19</title>
<path fill="none" stroke="grey" stroke-width="2" d="M2421.98,-297.819C2426.81,-289.06 2432.79,-278.226 2438.17,-268.474"/>
<polygon fill="grey" stroke="grey" stroke-width="2" points="2441.32,-270.005 2443.09,-259.558 2435.19,-266.623 2441.32,-270.005"/>
</g>
</g>
</svg>
